<svg xmlns="http://www.w3.org/2000/svg" viewBox="0 0 720 240" role="img" aria-label="SoloForge AI">
  <defs>
    <linearGradient id="s" x1="0" y1="0" x2="1" y2="1">
      <stop offset="0" stop-color="#E9E3DA"/>
      <stop offset="0.52" stop-color="#A8ADB8"/>
      <stop offset="1" stop-color="#7A3042"/>
    </linearGradient>
  </defs>
  <rect width="720" height="240" rx="28" fill="#0D0C0F"/>
  <g transform="translate(28 30)">
    <path d="M82 12h88l-38 42H88c-22 0-37 12-37 27 0 12 9 20 27 29l53 27c30 15 45 35 45 58 0 30-25 51-66 51H23l39-42h44c18 0 29-8 29-20 0-10-8-18-25-27L57 130c-35-18-50-39-50-65C7 35 34 12 82 12Z" fill="url(#s)"/>
    <path d="M132 58h70l-32 34h-68l-18-9Z" fill="#541C2A" opacity=".9"/>
  </g>
  <g transform="translate(250 68)">
    <text x="0" y="55" fill="#E9E3DA" font-family="Georgia, serif" font-size="54" font-weight="700" letter-spacing="2">SOLOFORGE</text>
    <text x="420" y="55" fill="#7A3042" font-family="Georgia, serif" font-size="54" font-weight="700">AI</text>
    <text x="2" y="102" fill="#A8ADB8" font-family="Georgia, serif" font-size="19" letter-spacing="3">CREATE · ANALYZE · LAUNCH · SCALE</text>
  </g>
</svg>
